<svg id="Layer_1" data-name="Layer 1" xmlns="http://www.w3.org/2000/svg" xmlns:xlink="http://www.w3.org/1999/xlink" viewBox="0 0 1010 1010"><defs><style>.cls-1,.cls-2,.cls-3,.cls-4,.cls-5,.cls-6,.cls-7{fill:none;stroke-miterlimit:10;stroke-width:5px;}.cls-1{stroke:url(#linear-gradient);}.cls-2{stroke:url(#linear-gradient-2);}.cls-3{stroke:url(#linear-gradient-3);}.cls-4{stroke:url(#linear-gradient-4);}.cls-5{stroke:url(#linear-gradient-5);}.cls-6{stroke:url(#linear-gradient-6);}.cls-7{stroke:url(#linear-gradient-7);}</style><linearGradient id="linear-gradient" x1="341.24" y1="331.62" x2="576.09" y2="485.43" gradientUnits="userSpaceOnUse"><stop offset="0" stop-color="#56f2f2"/><stop offset="1" stop-color="#56ccf2"/></linearGradient><linearGradient id="linear-gradient-2" x1="679.84" y1="579.5" x2="825.59" y2="674.96" xlink:href="#linear-gradient"/><linearGradient id="linear-gradient-3" x1="575.86" y1="593.47" x2="673.78" y2="657.6" xlink:href="#linear-gradient"/><linearGradient id="linear-gradient-4" x1="629.7" y1="682.23" x2="732.95" y2="749.85" xlink:href="#linear-gradient"/><linearGradient id="linear-gradient-5" x1="196.73" y1="565.34" x2="353.41" y2="667.96" xlink:href="#linear-gradient"/><linearGradient id="linear-gradient-6" x1="233.66" y1="574.52" x2="318.22" y2="629.9" xlink:href="#linear-gradient"/><linearGradient id="linear-gradient-7" x1="162.28" y1="-12.23" x2="847.72" y2="1022.23" xlink:href="#linear-gradient"/></defs><title>ENT</title><path class="cls-1" d="M578.23,478.35A525.33,525.33,0,0,1,505,504c-43.37,11.63-54.71,8.58-62.25,3.66-15.34-10-20.69-31.51-22-36.61-3.44-13.78.54-15.45-3.67-33-2.95-12.27-5.6-23.33-14.64-32.95-5.19-5.52-8.84-6.7-14.65-14.65-7.4-10.13-7.41-16.33-7.32-18.3a23,23,0,0,1,3.66-11c8-13.54,24.72-17.39,29.29-18.3,3.52-.71-25.43,1-32.95-11-4.17-6.65-6-15.33-3.66-22,1.74-5,5.5-8.93,11-14.64,3.91-4.08,4.72-4.09,7.33-7.33,2.95-3.67,7-8.67,7.32-14.64.57-10.12-9.77-17.47-11-18.31"/><path class="cls-2" d="M733,502.28a315,315,0,0,0,5.43,70.58c7.43,38.63,11.21,58.24,27.15,76,4.88,5.45,13.05,13.1,21.71,27.15,7.47,12.1,13,21.41,10.86,32.58-2.47,12.74-13.47,19.88-16.29,21.71-14.2,9.24-29.37,6.16-32.57,5.43"/><path class="cls-3" d="M638,502.28a292.79,292.79,0,0,1-5.84,70.58c-8,38.63-12.07,58.24-29.23,76-5.26,5.45-14.05,13.1-23.38,27.15-8,12.1-14,21.41-11.69,32.58,2.67,12.74,14.5,19.88,17.54,21.71,15.29,9.24,31.62,6.16,35.07,5.43"/><path class="cls-4" d="M754.69,714a86.13,86.13,0,0,0-27.15,5.43c-15.8,5.93-17.52,17.65-32.58,21.71-9.45,2.55-17.5.91-21.71,0-12.09-2.6-13.27-10.93-32.58-21.71-7-3.93-11.28-5.43-16.29-5.43a28.9,28.9,0,0,0-16.29,5.43"/><path class="cls-5" d="M211.74,579.21a82.94,82.94,0,0,1,5.43-38c1.4-3.51,16.19-38.76,54.29-48.86,31.35-8.31,56.84,6.14,65.16,10.86,4.93,2.79,43.1,25.29,48.86,70.58.4,3.15,4.37,38.2-16.28,65.15-4.48,5.84-3.87,3.16-27.15,27.15-19,19.61-23.38,25.46-27.15,32.58-6.83,12.89-3.91,15.06-10.86,27.15-5.61,9.76-12.81,22.28-27.15,27.14a42.49,42.49,0,0,1-43.43-10.86c-14.94-15.56-11.24-36.08-10.86-38"/><path class="cls-6" d="M266,693.23a52.78,52.78,0,0,0,16.28-21.72c2.15-5.41,7.52-21.63,0-38-7.32-16-24.25-26.35-43.43-27.14-1.13-4.26-5.92-24.12,5.43-43.44,13.11-22.32,37.34-26.18,43.43-27.15,4.44-.7,35.57-5.16,54.3,16.29a50.07,50.07,0,0,1,10.86,21.72"/><rect class="cls-7" x="5" y="5" width="1000" height="1000" rx="194.41" ry="194.41"/></svg>