<svg id="Layer_1" data-name="Layer 1" xmlns="http://www.w3.org/2000/svg" xmlns:xlink="http://www.w3.org/1999/xlink" viewBox="0 0 1010 1010"><defs><style>.cls-1,.cls-2,.cls-3,.cls-4,.cls-5,.cls-6,.cls-7,.cls-8,.cls-9{fill:none;stroke-miterlimit:10;stroke-width:5px;}.cls-1{stroke:url(#linear-gradient);}.cls-2{stroke:url(#linear-gradient-2);}.cls-3{stroke:url(#linear-gradient-3);}.cls-4{stroke:url(#linear-gradient-4);}.cls-5{stroke:url(#linear-gradient-5);}.cls-6{stroke:url(#linear-gradient-6);}.cls-7{stroke:url(#linear-gradient-7);}.cls-8{stroke:url(#linear-gradient-8);}.cls-9{stroke:url(#linear-gradient-9);}</style><linearGradient id="linear-gradient" x1="302.84" y1="353.69" x2="707.16" y2="656.31" gradientUnits="userSpaceOnUse"><stop offset="0" stop-color="#56f2f2"/><stop offset="1" stop-color="#56ccf2"/></linearGradient><linearGradient id="linear-gradient-2" x1="418.04" y1="301.06" x2="537.73" y2="390.65" xlink:href="#linear-gradient"/><linearGradient id="linear-gradient-3" x1="525.23" y1="523.99" x2="549.39" y2="542.07" xlink:href="#linear-gradient"/><linearGradient id="linear-gradient-4" x1="608.43" y1="458.95" x2="629.83" y2="474.97" xlink:href="#linear-gradient"/><linearGradient id="linear-gradient-5" x1="418.21" y1="529.6" x2="439.62" y2="545.62" xlink:href="#linear-gradient"/><linearGradient id="linear-gradient-6" x1="379.06" y1="603.53" x2="435.28" y2="645.6" xlink:href="#linear-gradient"/><linearGradient id="linear-gradient-7" x1="677.98" y1="489.4" x2="734.2" y2="531.47" xlink:href="#linear-gradient"/><linearGradient id="linear-gradient-8" x1="511.52" y1="537.57" x2="606.03" y2="608.31" xlink:href="#linear-gradient"/><linearGradient id="linear-gradient-9" x1="162.28" y1="-12.23" x2="847.72" y2="1022.23" xlink:href="#linear-gradient"/></defs><title>kids</title><circle class="cls-1" cx="505" cy="505" r="250"/><path class="cls-2" d="M488.7,347.39c.54-1.3,7.5-19.67,21.73-21.74,15.87-2.28,30,17.07,32.61,32.61,4,24.35-18.15,52-43.47,54.35-33.81,3.15-53.27-40.87-54.35-43.48-7.94-18.7-5.44-38,0-76.09,1.63-12,3.69-22.71,5.65-32.06"/><path class="cls-3" d="M521.3,553.91a28.64,28.64,0,0,1,43.48-32.61"/><circle class="cls-4" cx="619.13" cy="466.96" r="10.87"/><circle class="cls-5" cx="428.91" cy="537.61" r="10.87"/><circle class="cls-6" cx="407.17" cy="624.57" r="32.61"/><circle class="cls-7" cx="706.09" cy="510.43" r="32.61"/><path class="cls-8" d="M630,532.17c1.31,8.93,3.59,33-10.87,54.35-20.6,30.37-59.53,31.94-76.09,32.61C506.49,620.61,479,605.22,467,597.39"/><rect class="cls-9" x="5" y="5" width="1000" height="1000" rx="194.41" ry="194.41"/></svg>