<svg id="Layer_1" data-name="Layer 1" xmlns="http://www.w3.org/2000/svg" xmlns:xlink="http://www.w3.org/1999/xlink" viewBox="0 0 1010 1010"><defs><style>.cls-1,.cls-10,.cls-11,.cls-12,.cls-13,.cls-14,.cls-15,.cls-16,.cls-17,.cls-2,.cls-3,.cls-5,.cls-7,.cls-8,.cls-9{fill:none;}.cls-1,.cls-10,.cls-11,.cls-12,.cls-13,.cls-14,.cls-15,.cls-16,.cls-17,.cls-2,.cls-3,.cls-4,.cls-5,.cls-6,.cls-7,.cls-8,.cls-9{stroke-miterlimit:10;stroke-width:5px;}.cls-1{stroke:url(#linear-gradient);}.cls-2{stroke:url(#linear-gradient-2);}.cls-3{stroke:url(#linear-gradient-3);}.cls-4,.cls-6{fill:#fff;}.cls-4{stroke:url(#linear-gradient-4);}.cls-5{stroke:url(#linear-gradient-5);}.cls-6{stroke:url(#linear-gradient-6);}.cls-7{stroke:url(#linear-gradient-7);}.cls-8{stroke:url(#linear-gradient-8);}.cls-9{stroke:url(#linear-gradient-9);}.cls-10{stroke:url(#linear-gradient-10);}.cls-11{stroke:url(#linear-gradient-11);}.cls-12{stroke:url(#linear-gradient-12);}.cls-13{stroke:url(#linear-gradient-13);}.cls-14{stroke:url(#linear-gradient-14);}.cls-15{stroke:url(#linear-gradient-15);}.cls-16{stroke:url(#linear-gradient-16);}.cls-17{stroke:url(#linear-gradient-17);}</style><linearGradient id="linear-gradient" x1="683.24" y1="482.44" x2="744.1" y2="535.66" gradientUnits="userSpaceOnUse"><stop offset="0" stop-color="#56f2f2"/><stop offset="1" stop-color="#56ccf2"/></linearGradient><linearGradient id="linear-gradient-2" x1="251.2" y1="463.46" x2="338.83" y2="540.1" xlink:href="#linear-gradient"/><linearGradient id="linear-gradient-3" x1="344.16" y1="370.27" x2="675.53" y2="660.09" xlink:href="#linear-gradient"/><linearGradient id="linear-gradient-4" x1="334.13" y1="281.75" x2="687.15" y2="590.5" xlink:href="#linear-gradient"/><linearGradient id="linear-gradient-5" x1="686.51" y1="674.63" x2="748.97" y2="729.25" xlink:href="#linear-gradient"/><linearGradient id="linear-gradient-6" x1="555.6" y1="548.33" x2="694.53" y2="669.84" xlink:href="#linear-gradient"/><linearGradient id="linear-gradient-7" x1="610.29" y1="589.15" x2="632.36" y2="608.45" xlink:href="#linear-gradient"/><linearGradient id="linear-gradient-8" x1="612.4" y1="591" x2="630.25" y2="606.6" xlink:href="#linear-gradient"/><linearGradient id="linear-gradient-9" x1="569.86" y1="611.87" x2="584.88" y2="625.01" xlink:href="#linear-gradient"/><linearGradient id="linear-gradient-10" x1="571.16" y1="613" x2="583.58" y2="623.87" xlink:href="#linear-gradient"/><linearGradient id="linear-gradient-11" x1="634.02" y1="645.66" x2="648.08" y2="657.96" xlink:href="#linear-gradient"/><linearGradient id="linear-gradient-12" x1="635.2" y1="646.7" x2="646.89" y2="656.92" xlink:href="#linear-gradient"/><linearGradient id="linear-gradient-13" x1="657.96" y1="599.49" x2="672.02" y2="611.79" xlink:href="#linear-gradient"/><linearGradient id="linear-gradient-14" x1="659.15" y1="600.53" x2="670.83" y2="610.75" xlink:href="#linear-gradient"/><linearGradient id="linear-gradient-15" x1="607.02" y1="545.49" x2="626.28" y2="562.33" xlink:href="#linear-gradient"/><linearGradient id="linear-gradient-16" x1="608.81" y1="547.05" x2="624.49" y2="560.76" xlink:href="#linear-gradient"/><linearGradient id="linear-gradient-17" x1="162.28" y1="-12.23" x2="847.72" y2="1022.23" xlink:href="#linear-gradient"/></defs><title>Skin</title><path class="cls-1" d="M735.89,539.41C726.4,553.87,712.63,567.71,702,574c8.79-38.46,9.2-74,9.54-102.89.07-6.05,0-11.65-.17-16.85,4.54-3.7,10.83-7.2,17.94-6.53,11.3,1,18.34,12,19.64,14C767.33,490.34,738.07,536.09,735.89,539.41Z"/><path class="cls-2" d="M310.71,565.9c-9.63-1.32-19-6.32-20-6.85-29.41-16-33.43-54.29-34.61-65.47-1.48-14.11-3.23-30.74,7.49-40.21,10.92-9.66,28.44-6.27,31.79-5.61a45.79,45.79,0,0,1,17,6.77C308.69,475.22,303.12,517,310.71,565.9Z"/><path class="cls-3" d="M711.58,471.14c-.34,28.9-.75,64.43-9.54,102.89a281.84,281.84,0,0,1-39.1,92.57c-27.91,42.75-58.79,65.29-89.78,87.92-22,16.09-39.62,25.54-61.73,27.12-11.33.81-26.85-.24-48.63-9.35-36.16-15.15-83.23-49.86-116-104.75A281.71,281.71,0,0,1,310.71,565.9c-7.59-48.95-2-90.68,1.71-111.37.26-1.42.51-2.75.74-4a175.41,175.41,0,0,1,15.9-50.5C354.48,348.57,398.7,324.56,417,315c57.95-30.44,153.53-47.61,223.52,2.81,41.72,30.06,58.59,72.79,60.79,78.56,4.4,11.56,9.12,27.95,10.12,58C711.59,459.49,711.65,465.09,711.58,471.14Z"/><path class="cls-4" d="M371.15,372.94a276.79,276.79,0,0,0,55.18,38.34c38.25,20.16,71,24.51,70.14,24.32-9.3-2-33.67-8.6-51.44-30.86a83.52,83.52,0,0,1-13.09-23.38A352.31,352.31,0,0,0,476.83,416c49.79,32.33,98.7,46.1,133.74,52.37a304.25,304.25,0,0,1-91.65-69.21A228.78,228.78,0,0,0,669.49,451.5a118.26,118.26,0,0,1,20.58,32.73c18.65,44.79,3.17,87.6-1.87,100.07,10.21-9.41,23.88-24.72,31.79-46.76,5.84-16.26,5.66-28.13,7.49-56.11,3-46.55,16.81-95.76-3.54-140.3-27.72-60.63-98.82-83.29-156.84-103.39-48.68-16.87-109.27-9.73-156.8,7.64C370.44,260,331.65,285,305.48,318.78c-12.62,16.31-23.87,36.72-25.78,57.63-2.33,25.5,11.27,49.26,15.29,73.9,4.4,27-2.22,55.05,3.44,81.82,3.67,17.32,16.27,35.79,34,35-15.49.69-25.64-53.21-25.81-63.29-.41-23.79,8.95-46.1,18.74-67.31A208.09,208.09,0,0,1,371.15,372.94Z"/><line class="cls-5" x1="746.18" y1="732.07" x2="689.3" y2="671.8"/><circle class="cls-6" cx="625.07" cy="609.09" r="89.78"/><circle class="cls-7" cx="621.33" cy="598.8" r="12.16"/><circle class="cls-8" cx="621.33" cy="598.8" r="9.35"/><circle class="cls-9" cx="577.37" cy="618.44" r="7.48"/><circle class="cls-10" cx="577.37" cy="618.44" r="5.76"/><circle class="cls-11" cx="641.05" cy="651.81" r="6.84"/><circle class="cls-12" cx="641.05" cy="651.81" r="5.26"/><circle class="cls-13" cx="664.99" cy="605.64" r="6.84"/><circle class="cls-14" cx="664.99" cy="605.64" r="5.26"/><circle class="cls-15" cx="616.65" cy="553.91" r="10.29"/><circle class="cls-16" cx="616.65" cy="553.91" r="7.91"/><rect class="cls-17" x="5" y="5" width="1000" height="1000" rx="194.41" ry="194.41"/></svg>