<svg width="322" height="322" viewBox="0 0 322 322" fill="none" xmlns="http://www.w3.org/2000/svg">
<rect width="322" height="322" rx="140" fill="url(#paint0_linear)" fill-opacity="0.9"/>
<path d="M123.313 79.5467C125.192 78.293 127.467 77.7746 129.703 78.0903C131.94 78.4061 133.982 79.534 135.441 81.2589C141.298 88.1856 147.099 92.0214 150.904 94.1361C159.283 98.7701 169.389 101.303 170.319 101.532C179.545 103.787 181.581 102.619 185.104 105.221C191.29 109.779 195.09 120.786 190.649 130.181C187.221 137.442 179.64 142.111 171.235 142.189C171.235 143.561 171.168 153.261 163.839 158.831C155.467 165.195 142.848 162.2 137.028 156.058C131.867 150.61 135.238 146.052 129.633 132.945C127.829 128.732 125.016 124.531 119.464 116.304C116.64 112.123 113.015 106.895 108.604 100.894C107.867 99.8916 107.342 98.7506 107.06 97.5398C106.777 96.3289 106.743 95.0733 106.959 93.8489C107.176 92.6244 107.638 91.4566 108.318 90.4159C108.999 89.3753 109.883 88.4834 110.918 87.7942L123.313 79.5467Z" stroke="white" stroke-width="5" stroke-miterlimit="10"/>
<path d="M183.601 242.009C184.807 241.894 185.98 241.543 187.05 240.974C188.12 240.405 189.067 239.631 189.837 238.695C190.607 237.758 191.184 236.679 191.535 235.519C191.887 234.359 192.005 233.141 191.884 231.935C191.438 227.609 191.23 223.261 191.259 218.912C191.328 208.165 191.364 202.792 194.594 197.24C198.597 190.362 202.446 191.645 206.669 184.483C211.21 176.785 212.31 165.875 208.039 162.865C205.475 161.057 201.332 162.351 198.891 163.116C193.022 164.95 192.709 168.008 188.577 168.63C183.541 169.387 182.88 165.004 176.036 164.406C171.113 163.961 166.207 165.771 161.731 167.414C157.506 168.971 156.73 169.86 154.596 169.571C150.464 169.008 149.955 165.195 145.27 163.287C141.861 161.902 136.693 161.702 134.178 164.245C130.525 167.939 133.389 176.493 135.957 181.201C140.458 189.473 145.926 189.375 150.128 197.162C152.129 200.869 152.534 203.94 153.172 212.772C153.617 218.885 154.062 226.37 154.4 235.035C154.448 236.287 154.751 237.515 155.291 238.646C155.83 239.776 156.595 240.784 157.538 241.609C158.48 242.433 159.582 243.057 160.774 243.441C161.966 243.825 163.224 243.962 164.471 243.843L183.601 242.009Z" stroke="white" stroke-width="5" stroke-miterlimit="10"/>
<path d="M208.674 133.419C210.525 137.017 218.492 157.717 210.522 158.379C199.429 159.304 192.633 162.669 188.335 163.002C183.038 163.414 175.215 157.688 175.391 153.756C175.531 150.512 184.366 148.58 190.185 142.663C196.882 135.854 194.921 124.858 199.429 124.173C202.31 123.737 207.443 131 208.674 133.419Z" stroke="white" stroke-width="5" stroke-miterlimit="10"/>
<defs>
<linearGradient id="paint0_linear" x1="322" y1="0" x2="200.086" y2="385.308" gradientUnits="userSpaceOnUse">
<stop stop-color="#56F2F2"/>
<stop offset="0.629834" stop-color="#56CCF2"/>
</linearGradient>
</defs>
</svg>
