<svg width="322" height="322" viewBox="0 0 322 322" fill="none" xmlns="http://www.w3.org/2000/svg">
<rect width="322" height="322" rx="140" fill="url(#paint0_linear)" fill-opacity="0.9"/>
<path d="M194.456 179.284C193.333 176.927 192.609 173.292 193.727 170.64C188.53 168.608 183.818 165.509 179.896 161.543C175.8 157.287 172.652 152.212 170.662 146.653C170.519 146.263 170.387 145.878 170.263 145.495C165.065 146.271 157.877 146.167 152.195 141.685C151.432 141.079 150.715 140.418 150.049 139.707C145.299 142.186 138.52 146.961 135.505 155.168C134.752 157.225 134.274 159.372 134.085 161.553C134.274 159.372 134.752 157.225 135.505 155.168C138.52 146.961 145.299 142.186 150.049 139.707C147.919 137.383 146.239 134.686 145.092 131.75C142.794 125.606 145.025 123.24 142.608 116.499C141.956 114.689 140.264 110.129 135.86 106.21C133.976 104.535 131.277 103.778 129.515 102.953C124.858 103.315 109.175 105.497 98.2062 117.564C95.0787 121.02 92.5568 124.978 90.7464 129.271L90.5135 129.429C90.6273 138.446 92.6428 147.338 96.4286 155.525C92.6428 147.338 90.6273 138.446 90.5135 129.429C88.1279 131.045 82.5647 135.325 79.7392 143.106C78.6084 146.208 76.1296 154.832 80.4481 163.686C82.7769 168.463 85.7189 171.048 87.8044 172.563C88.811 170.909 89.4294 169.28 90.3919 168.298C98.113 160.429 109.765 160.63 116.474 161.577C113.628 156.306 112.334 149.962 113.475 144.171C114.598 138.505 117.198 137.81 119.168 129.271C120.407 123.879 121.426 119.135 119.168 114.368C117.543 110.938 114.81 108.746 112.494 107.402C114.81 108.746 117.543 110.938 119.168 114.368C121.426 119.135 120.407 123.879 119.168 129.271C117.209 137.802 114.608 138.505 113.475 144.171C112.329 149.962 113.638 156.306 116.474 161.577C117.421 163.345 118.56 165.004 119.869 166.524C128.894 176.898 143.11 176.048 148.3 175.735C152.458 175.478 156.555 174.614 160.462 173.168C164.614 171.63 168.525 169.508 172.077 166.866C168.525 169.508 164.614 171.63 160.462 173.168C160.942 174.071 161.502 174.93 162.133 175.735C164.498 178.741 167.249 180.171 171.011 182.123C174.283 183.817 177.742 185.126 181.317 186.023C177.744 185.126 174.287 183.817 171.016 182.123C167.254 180.171 164.503 178.741 162.138 175.735C161.507 174.93 160.948 174.071 160.467 173.168C156.559 174.614 152.46 175.479 148.3 175.735C143.125 176.048 128.894 176.909 119.89 166.511C118.573 164.992 117.428 163.333 116.474 161.564C109.765 160.618 98.1027 160.416 90.3919 168.285C89.4294 169.267 88.811 170.896 87.8044 172.55C87.9053 174.944 88.9817 182.236 94.2991 187.802C98.0354 191.711 102.15 192.902 107.793 194.541C111.014 195.48 114.166 196.389 117.051 196.757C120.479 197.196 123.535 196.87 125.905 194.898C128.452 192.776 130.045 188.872 129.101 185.672C127.833 181.404 122.417 180.003 118.091 178.576C114.32 177.337 110.316 176.972 106.383 177.508C110.319 176.97 114.327 177.334 118.102 178.573C122.428 180 127.843 181.401 129.111 185.669C130.061 188.87 128.462 192.773 125.916 194.895C123.546 196.868 120.482 197.193 117.061 196.754C117.695 202.596 116.456 206.298 114.906 208.73C113.628 210.742 111.576 212.776 111.001 216.537C110.468 220.025 111.26 224.667 113.485 225.407C115.092 225.939 116.709 224.199 122.72 218.311C129.269 211.892 132.573 208.663 134.085 207.668C139.922 203.806 142.297 204.941 147.578 200.926C150.393 198.768 152.798 196.124 154.681 193.119C151.721 191.283 148.875 189.269 146.158 187.088C148.875 189.269 151.721 191.283 154.681 193.119C156.492 194.205 169.689 201.849 184.512 196.314C190.874 193.988 196.335 189.707 200.11 184.087C198.363 183.162 195.784 182.068 194.456 179.284Z" stroke="white" stroke-width="5" stroke-miterlimit="10"/>
<path d="M243.871 157.573C243.096 150.573 239.145 145.72 237.445 143.902C236.33 146.737 234.362 149.152 231.814 150.811C226.362 154.384 220.241 152.885 217.628 152.235C212.828 151.05 209.174 148.465 205.977 145.31C204.345 146.333 202.513 146.995 200.605 147.252C196.884 147.739 194.014 146.474 191.74 145.473C186.298 143.078 182.918 139.161 181.099 136.578C182.908 139.171 186.298 143.078 191.74 145.473C194.014 146.477 196.884 147.739 200.605 147.252C202.513 146.995 204.345 146.333 205.977 145.31C203.812 143.171 201.843 140.765 199.897 138.357C196.692 134.421 193.955 130.124 191.74 125.553C193.957 130.124 196.698 134.421 199.905 138.357C201.864 140.765 203.82 143.171 205.985 145.31C209.182 148.465 212.835 151.05 217.636 152.235C220.249 152.878 226.37 154.384 231.822 150.811C234.37 149.152 236.338 146.737 237.453 143.902C236.3 139.938 231.936 126.792 218.701 118.789C214.125 116.038 209.056 114.215 203.781 113.422C206.491 122.762 212.401 130.841 220.468 136.236C212.401 130.841 206.491 122.762 203.781 113.422C202.308 111.296 197.779 105.367 189.613 103.132C186.72 102.347 183.708 102.102 180.727 102.409C178.073 105.315 176.243 108.882 175.427 112.738C175.314 113.29 175.226 113.834 175.169 114.366C174.766 117.65 175.096 120.983 176.133 124.124C175.09 120.984 174.756 117.651 175.153 114.366C167.94 111.341 160.189 109.819 152.371 109.891C160.189 109.819 167.94 111.341 175.153 114.366C175.221 113.834 175.308 113.29 175.412 112.738C176.227 108.882 178.057 105.315 180.711 102.409C172.559 97.9923 163.398 95.7885 154.135 96.016C142.006 96.3245 133.851 100.317 129.712 102.712C131.472 103.539 134.167 104.299 136.048 105.979C140.441 109.909 142.136 114.475 142.787 116.297C145.2 123.061 142.973 125.433 145.267 131.593C146.413 134.537 148.091 137.242 150.218 139.573C150.883 140.285 151.599 140.948 152.36 141.556C158.045 146.052 165.213 146.15 170.404 145.377C168.803 140.475 168.096 135.324 168.319 130.17C168.096 135.324 168.803 140.475 170.404 145.377C170.528 145.764 170.662 146.155 170.802 146.539C172.789 152.118 175.932 157.211 180.024 161.482C183.94 165.46 188.646 168.568 193.835 170.605C194.091 169.992 194.458 169.432 194.918 168.954C196.66 167.181 199.215 167.276 204.138 167.531C211.388 167.912 213.15 169.511 216.905 169.312C220.099 169.143 224.517 167.689 229.672 161.84C224.504 167.689 220.112 169.143 216.905 169.312C213.15 169.511 211.388 167.912 204.138 167.531C199.228 167.271 196.66 167.181 194.918 168.954C194.458 169.432 194.091 169.992 193.835 170.605C192.719 173.265 193.443 176.91 194.564 179.275C195.89 182.064 198.466 183.163 200.21 184.092C211.758 188.947 224.874 187.174 233.574 179.985C235.455 178.44 245.228 169.936 243.871 157.573Z" stroke="white" stroke-width="5" stroke-miterlimit="10"/>
<defs>
<linearGradient id="paint0_linear" x1="322" y1="0" x2="200.086" y2="385.308" gradientUnits="userSpaceOnUse">
<stop stop-color="#56F2F2"/>
<stop offset="0.629834" stop-color="#56CCF2"/>
</linearGradient>
</defs>
</svg>
