<svg width="322" height="322" viewBox="0 0 322 322" fill="none" xmlns="http://www.w3.org/2000/svg">
<rect width="322" height="322" rx="140" fill="url(#paint0_linear)" fill-opacity="0.9"/>
<path d="M183.823 152.932C176.391 156.17 168.73 158.853 160.902 160.961C147.327 164.601 143.777 163.646 141.417 162.106C136.616 158.976 134.941 152.244 134.531 150.647C133.454 146.334 134.7 145.811 133.382 140.318C132.459 136.477 131.629 133.016 128.8 130.004C127.175 128.277 126.033 127.907 124.214 125.419C121.898 122.248 121.895 120.307 121.923 119.691C122.005 118.464 122.399 117.279 123.069 116.248C125.573 112.01 130.806 110.804 132.237 110.52C133.338 110.297 124.277 110.833 121.923 107.077C120.618 104.995 120.045 102.278 120.777 100.19C121.322 98.6254 122.499 97.3952 124.22 95.608C125.444 94.3309 125.698 94.3278 126.515 93.3136C127.438 92.1649 128.706 90.5998 128.806 88.7312C128.984 85.5635 125.748 83.2629 125.363 83" stroke="white" stroke-width="5" stroke-miterlimit="10"/>
<path d="M232.267 160.423C232.002 167.827 232.572 175.238 233.967 182.515C236.293 194.606 237.476 200.744 242.465 206.303C243.993 208.009 246.55 210.404 249.261 214.801C251.599 218.589 253.33 221.503 252.66 224.999C251.887 228.987 248.444 231.222 247.561 231.795C243.116 234.687 238.368 233.723 237.366 233.494" stroke="white" stroke-width="5" stroke-miterlimit="10"/>
<path d="M202.531 160.423C202.818 167.833 202.204 175.252 200.703 182.515C198.199 194.606 196.925 200.744 191.554 206.303C189.907 208.009 187.156 210.404 184.236 214.801C181.731 218.589 179.853 221.503 180.576 224.999C181.412 228.987 185.115 231.222 186.067 231.795C190.853 234.687 195.964 233.723 197.044 233.494" stroke="white" stroke-width="5" stroke-miterlimit="10"/>
<path d="M239.056 226.693C236.15 226.797 233.28 227.371 230.558 228.392C225.612 230.248 225.074 233.917 220.36 235.188C217.402 235.986 214.882 235.473 213.565 235.188C209.78 234.374 209.411 231.766 203.367 228.392C201.176 227.162 199.836 226.693 198.268 226.693C196.435 226.73 194.657 227.322 193.169 228.392" stroke="white" stroke-width="5" stroke-miterlimit="10"/>
<path d="M69.1088 184.502C68.7375 180.459 69.3196 176.385 70.8085 172.608C71.2467 171.509 75.876 160.476 87.8016 157.314C97.6144 154.713 105.593 159.236 108.197 160.714C109.74 161.587 121.688 168.63 123.491 182.806C123.616 183.792 124.859 194.763 118.395 203.198C116.993 205.026 117.184 204.187 109.897 211.696C103.95 217.834 102.579 219.666 101.399 221.894C99.2609 225.929 100.175 226.608 97.9995 230.392C96.2435 233.447 93.9898 237.366 89.5013 238.887C87.1436 239.642 84.622 239.724 82.2203 239.123C79.8187 238.523 77.6324 237.264 75.9074 235.488C71.231 230.618 72.3891 224.195 72.5081 223.594" stroke="white" stroke-width="5" stroke-miterlimit="10"/>
<path d="M86.0927 220.191C88.355 218.408 90.1116 216.064 91.1885 213.393C91.8615 211.699 93.5423 206.622 91.1885 201.499C88.8973 196.49 83.598 193.251 77.5946 193.003C77.2409 191.67 75.7415 185.454 79.2942 179.406C83.3977 172.42 90.9819 171.212 92.8881 170.908C94.2779 170.689 104.022 169.293 109.884 176.007C111.558 177.96 112.726 180.295 113.284 182.806" stroke="white" stroke-width="5" stroke-miterlimit="10"/>
<defs>
<linearGradient id="paint0_linear" x1="322" y1="0" x2="200.086" y2="385.308" gradientUnits="userSpaceOnUse">
<stop stop-color="#56F2F2"/>
<stop offset="0.629834" stop-color="#56CCF2"/>
</linearGradient>
</defs>
</svg>
