<svg width="322" height="322" viewBox="0 0 322 322" fill="none" xmlns="http://www.w3.org/2000/svg">
<rect width="322" height="322" rx="140" fill="url(#paint0_linear)" fill-opacity="0.9"/>
<path d="M161 136.413C174.522 136.413 185.477 147.333 185.477 160.761C185.477 174.189 174.522 185.109 161 185.109C147.479 185.109 136.524 174.189 136.524 160.761C136.524 147.333 147.479 136.413 161 136.413ZM190.477 160.761C190.477 144.549 177.261 131.413 161 131.413C144.74 131.413 131.524 144.549 131.524 160.761C131.524 176.973 144.74 190.109 161 190.109C177.261 190.109 190.477 176.973 190.477 160.761ZM44.9978 160.761C63.5325 115.025 108.458 82.7174 161 82.7174C213.543 82.7174 258.468 115.025 277.003 160.761C258.468 206.497 213.543 238.804 161 238.804C108.458 238.804 63.5325 206.497 44.9978 160.761ZM161 133.913C175.891 133.913 187.977 145.941 187.977 160.761C187.977 175.581 175.891 187.609 161 187.609C146.109 187.609 134.024 175.581 134.024 160.761C134.024 145.941 146.109 133.913 161 133.913Z" stroke="white" stroke-width="5"/>
<defs>
<linearGradient id="paint0_linear" x1="322" y1="0" x2="200.086" y2="385.308" gradientUnits="userSpaceOnUse">
<stop stop-color="#56F2F2"/>
<stop offset="0.629834" stop-color="#56CCF2"/>
</linearGradient>
</defs>
</svg>
