<svg width="322" height="322" viewBox="0 0 322 322" fill="none" xmlns="http://www.w3.org/2000/svg">
<rect width="322" height="322" rx="140" fill="url(#paint0_linear)" fill-opacity="0.9"/>
<path d="M208.394 109.616L219.698 96.7815C219.434 95.9791 217.418 90.0008 214.423 89.9851C212.994 89.9851 211.93 91.3349 210.655 93.0057C208.381 95.9885 205.559 99.7895 202.368 104.333C197.398 99.9667 191.453 96.8601 185.035 95.2743V77.16C184.487 76.2238 183.709 75.4438 182.775 74.8945C180.922 73.831 178.146 73.5793 176.746 74.8945C175.571 76.0021 175.744 77.8554 175.992 80.1806C176.523 85.1363 177.044 89.4501 177.499 93.0183C175.245 92.7952 172.974 92.7952 170.72 93.0183C169.198 93.1681 167.687 93.4204 166.198 93.7734C164.25 90.7238 162.729 87.4206 161.677 83.9564C160.81 81.0616 160.481 78.664 158.662 77.9151C157.221 77.3236 155.554 78.0536 154.141 78.6703C152.809 79.2524 150.966 80.0579 150.373 81.6909C149.779 83.3239 150.706 84.9601 151.88 86.977C153.491 89.7428 155.494 93.0623 157.909 96.794C154.292 98.8166 150.991 101.361 148.112 104.346C143.061 109.644 139.432 116.14 137.565 123.225C137.138 115.988 136.824 110.639 136.811 108.121C136.829 106.824 136.572 105.537 136.057 104.346C135.695 103.507 135.184 102.74 134.55 102.083C132.999 100.589 130.845 100.614 128.521 100.573C119.619 100.403 118.973 99.4025 115.71 100.573C114.178 101.12 112.338 101.81 111.189 103.59C109.694 105.916 110.265 108.713 110.435 109.632C111.361 114.666 112.058 127.765 112.696 146.631C105.763 144.095 100.764 142.129 97.6237 140.59C96.8324 140.203 95.0363 139.294 93.102 139.835C91.8052 140.2 91.0359 141.052 90.0876 142.1C89.1393 143.148 86.9664 145.561 87.0732 148.897C87.1015 149.768 87.1391 150.901 87.8268 151.917C89.4376 154.293 93.3093 154.098 96.1164 154.183C99.627 154.287 104.472 154.919 110.432 157.203L108.925 164C103.935 164.516 99.3915 164.723 95.3628 164.755C89.0545 164.802 86.6242 164.396 84.8124 166.265C82.448 168.701 82.3443 173.77 84.8124 176.834C86.6964 179.178 89.5224 179.638 90.8412 179.855C93.5448 180.295 95.6957 179.654 99.8845 178.345C101.935 177.707 103.947 176.95 105.91 176.079C105.785 181.764 106.81 187.416 108.925 192.693C110.111 195.625 111.628 198.412 113.446 200.999L117.214 245.547C120.056 247.013 123.106 248.031 126.257 248.568C134.5 249.965 141.207 247.643 144.341 246.302V228.166C154.73 232.671 165.602 235.963 176.743 237.98C187.227 239.868 194.876 240.063 202.365 240.245C217.591 240.623 221.927 239.009 224.217 237.98C226.506 236.951 234.977 233.147 238.532 224.39C240.504 219.535 240.206 215.001 239.285 209.287C237.64 199.055 235.665 186.793 227.231 172.288C220.694 161.101 211.982 151.344 201.612 143.595C198.773 138.146 194.939 133.28 190.308 129.25C183.446 123.35 175.11 119.434 166.195 117.923C167.47 116.604 169.012 115.574 170.717 114.902C177.857 112.149 185.45 117.202 188.8 119.433C193.597 122.679 197.488 127.098 200.104 132.271C201.031 132.444 207.455 133.551 212.159 129.25C212.909 128.564 216.392 125.38 215.927 121.698C215.638 119.408 214.043 118.627 210.652 113.392C209.628 111.803 208.862 110.466 208.394 109.616Z" stroke="white" stroke-width="5" stroke-miterlimit="10"/>
<defs>
<linearGradient id="paint0_linear" x1="322" y1="0" x2="200.086" y2="385.308" gradientUnits="userSpaceOnUse">
<stop stop-color="#56F2F2"/>
<stop offset="0.629834" stop-color="#56CCF2"/>
</linearGradient>
</defs>
</svg>
