<svg width="322" height="322" viewBox="0 0 322 322" fill="none" xmlns="http://www.w3.org/2000/svg">
<rect width="322" height="322" rx="140" fill="url(#paint0_linear)" fill-opacity="0.9"/>
<path d="M161.5 254C212.586 254 254 212.586 254 161.5C254 110.414 212.586 69 161.5 69C110.414 69 69 110.414 69 161.5C69 212.586 110.414 254 161.5 254Z" stroke="white" stroke-width="5" stroke-miterlimit="10"/>
<path d="M155.189 102.858C155.388 102.378 157.949 95.5913 163.186 94.8265C169.026 93.9841 174.225 101.133 175.186 106.874C176.658 115.871 168.507 126.086 159.189 126.954C146.748 128.118 139.587 111.855 139.189 110.89C136.268 103.982 137.188 96.8511 139.189 82.7785C139.789 78.3451 140.547 74.3882 141.268 70.9338" stroke="white" stroke-width="5" stroke-miterlimit="10"/>
<path d="M167.529 179.226C166.819 177.179 166.796 174.968 167.464 172.908C168.132 170.847 169.457 169.041 171.25 167.746C173.044 166.451 175.215 165.732 177.457 165.692C179.699 165.651 181.896 166.291 183.739 167.521" stroke="white" stroke-width="5" stroke-miterlimit="10"/>
<path d="M203.399 151.509C205.713 151.509 207.589 149.633 207.589 147.319C207.589 145.005 205.713 143.129 203.399 143.129C201.085 143.129 199.209 145.005 199.209 147.319C199.209 149.633 201.085 151.509 203.399 151.509Z" stroke="white" stroke-width="5" stroke-miterlimit="10"/>
<path d="M133.137 177.293C135.451 177.293 137.327 175.561 137.327 173.425C137.327 171.289 135.451 169.557 133.137 169.557C130.823 169.557 128.947 171.289 128.947 173.425C128.947 175.561 130.823 177.293 133.137 177.293Z" stroke="white" stroke-width="5" stroke-miterlimit="10"/>
<path d="M125.403 217.902C131.989 217.902 137.328 212.419 137.328 205.655C137.328 198.891 131.989 193.408 125.403 193.408C118.817 193.408 113.478 198.891 113.478 205.655C113.478 212.419 118.817 217.902 125.403 217.902Z" stroke="white" stroke-width="5" stroke-miterlimit="10"/>
<path d="M235.629 175.359C242.215 175.359 247.554 170.02 247.554 163.434C247.554 156.848 242.215 151.509 235.629 151.509C229.043 151.509 223.704 156.848 223.704 163.434C223.704 170.02 229.043 175.359 235.629 175.359Z" stroke="white" stroke-width="5" stroke-miterlimit="10"/>
<path d="M207.231 171.491C207.71 174.797 208.543 183.708 203.257 191.612C195.726 202.855 181.494 203.436 175.44 203.684C162.078 204.232 152.028 198.535 147.641 195.636" stroke="white" stroke-width="5" stroke-miterlimit="10"/>
<defs>
<linearGradient id="paint0_linear" x1="322" y1="0" x2="200.086" y2="385.308" gradientUnits="userSpaceOnUse">
<stop stop-color="#56F2F2"/>
<stop offset="0.629834" stop-color="#56CCF2"/>
</linearGradient>
</defs>
</svg>
