<svg width="322" height="322" viewBox="0 0 322 322" fill="none" xmlns="http://www.w3.org/2000/svg">
<rect width="322" height="322" rx="140" fill="url(#paint0_linear)" fill-opacity="0.9"/>
<path d="M220.693 167.423C218.962 194.138 212.28 212.865 206.933 224.425C202.305 234.432 198.448 239.558 193.174 240.149C185.41 241.026 178.412 230.693 175.482 226.39C163.706 209.09 169.066 195.932 158.774 190.025C153.541 187.023 146.002 186.896 141.085 190.025C138.067 191.949 136.656 194.695 135.188 197.89C126.111 217.506 127.279 225.618 119.464 233.271C117.294 235.394 112.842 239.747 107.669 239.168C100.734 238.39 96.2227 229.164 91.9421 217.547C81.8622 190.152 79.3312 166.474 78.1828 152.667C75.0474 114.682 78.7681 106.612 82.1153 101.559C90.588 88.7647 103.841 84.4461 105.701 83.8671C119.644 79.5454 131.509 83.807 137.153 85.835C149.846 90.3909 157.49 98.1738 160.742 101.559C177.554 119.064 179.93 140.933 180.399 148.734" stroke="white" stroke-width="5" stroke-miterlimit="10"/>
<path d="M152.76 94.3393C155.964 92.5813 159.288 91.0505 162.707 89.7581C175.876 84.8197 190.121 83.4659 203.985 85.835" stroke="white" stroke-width="5" stroke-miterlimit="10"/>
<path d="M117.496 95.6617C113.715 96.7659 107.055 99.3254 101.772 105.492C96.9879 111.069 95.678 116.865 93.9095 125.148C91.995 134.19 91.3329 143.451 91.9416 152.673" stroke="white" stroke-width="5" stroke-miterlimit="10"/>
<path d="M244.282 123.18H195.139" stroke="white" stroke-width="5" stroke-miterlimit="10"/>
<path d="M219.712 147.754V98.6104" stroke="white" stroke-width="5" stroke-miterlimit="10"/>
<defs>
<linearGradient id="paint0_linear" x1="322" y1="0" x2="200.086" y2="385.308" gradientUnits="userSpaceOnUse">
<stop stop-color="#56F2F2"/>
<stop offset="0.629834" stop-color="#56CCF2"/>
</linearGradient>
</defs>
</svg>
