<svg id="Layer_1" data-name="Layer 1" xmlns="http://www.w3.org/2000/svg" xmlns:xlink="http://www.w3.org/1999/xlink" viewBox="0 0 1010 1010"><defs><style>.cls-1,.cls-2,.cls-3,.cls-4{fill:none;stroke-miterlimit:10;stroke-width:5px;}.cls-1{stroke:url(#linear-gradient);}.cls-2{stroke:url(#linear-gradient-2);}.cls-3{stroke:url(#linear-gradient-3);}.cls-4{stroke:url(#linear-gradient-4);}</style><linearGradient id="linear-gradient" x1="453.88" y1="189.91" x2="675.03" y2="421.59" gradientUnits="userSpaceOnUse"><stop offset="0" stop-color="#56f2f2"/><stop offset="1" stop-color="#56ccf2"/></linearGradient><linearGradient id="linear-gradient-2" x1="301.58" y1="496.48" x2="590.35" y2="799" xlink:href="#linear-gradient"/><linearGradient id="linear-gradient-3" x1="263.19" y1="389.21" x2="393.27" y2="525.48" xlink:href="#linear-gradient"/><linearGradient id="linear-gradient-4" x1="162.28" y1="-12.23" x2="847.72" y2="1022.23" xlink:href="#linear-gradient"/></defs><title>Bones</title><path class="cls-1" d="M662.88,144.39a41.36,41.36,0,0,0-54.54,7.7C582,183.24,555.91,200.49,538.8,210c-37.68,20.84-83.13,32.23-87.31,33.26C410,253.4,400.84,248.15,385,259.85c-27.82,20.5-44.91,70-24.94,112.25,15.42,32.65,49.51,53.65,87.31,54,0,6.17.3,49.79,33.26,74.84,37.65,28.62,94.4,15.15,120.57-12.47,23.21-24.5,8.05-45,33.26-103.94,8.11-18.95,20.76-37.84,45.73-74.84,12.7-18.8,29-42.31,48.84-69.3a41.36,41.36,0,0,0-10.41-58.91Z"/><path class="cls-2" d="M391.76,875a41.35,41.35,0,0,1-37.25-45.3,536.9,536.9,0,0,0,2.81-58.57c-.31-48.33-.47-72.49-15-97.46-18-30.93-35.31-25.16-54.3-57.37-20.42-34.62-25.37-83.68-6.16-97.22,11.53-8.13,30.16-2.31,41.14,1.13,26.39,8.25,27.8,22,46.38,24.8,22.65,3.4,25.62-16.31,56.4-19,22.14-2,44.2,6.14,64.33,13.53,19,7,22.49,11,32.09,9.7,18.58-2.53,20.87-19.68,41.94-28.26,15.33-6.23,38.57-7.13,49.88,4.31,16.43,16.61,3.55,55.08-8,76.25-20.24,37.2-44.83,36.76-63.73,71.78-9,16.67-10.82,30.48-13.69,70.2-2,27.49-4,61.15-5.52,100.12a41.39,41.39,0,0,1-45.29,39.61Z"/><path class="cls-3" d="M279,386.66c-8.32,16.18-44.15,109.27-8.31,112.25,49.89,4.16,80.45,19.29,99.78,20.79,23.82,1.85,59-23.9,58.21-41.58-.63-14.59-40.36-23.28-66.53-49.89-30.12-30.62-21.3-80.07-41.57-83.15C307.62,343.12,284.54,375.78,279,386.66Z"/><rect class="cls-4" x="5" y="5" width="1000" height="1000" rx="194.41" ry="194.41"/></svg>