<svg id="Layer_1" data-name="Layer 1" xmlns="http://www.w3.org/2000/svg" xmlns:xlink="http://www.w3.org/1999/xlink" viewBox="0 0 1010 1010"><defs><style>.cls-1,.cls-2,.cls-3{fill:none;stroke-miterlimit:10;stroke-width:5px;}.cls-1{stroke:url(#linear-gradient);}.cls-2{stroke:url(#linear-gradient-2);}.cls-3{stroke:url(#linear-gradient-3);}</style><linearGradient id="linear-gradient" x1="190.31" y1="430.05" x2="623.2" y2="662.24" gradientUnits="userSpaceOnUse"><stop offset="0" stop-color="#56f2f2"/><stop offset="1" stop-color="#56ccf2"/></linearGradient><linearGradient id="linear-gradient-2" x1="370.49" y1="295.13" x2="821.05" y2="536.79" xlink:href="#linear-gradient"/><linearGradient id="linear-gradient-3" x1="162.28" y1="-12.23" x2="847.72" y2="1022.23" xlink:href="#linear-gradient"/></defs><title>Brain</title><path class="cls-1" d="M634.38,576.23c-4.34-9.12-7.14-23.18-2.82-33.44a154,154,0,0,1-53.45-35.19A161.67,161.67,0,0,1,542.42,450c-.55-1.51-1.06-3-1.54-4.48-20.09,3-47.87,2.6-69.83-14.74a77.14,77.14,0,0,1-8.29-7.65c-18.36,9.59-44.56,28.06-56.21,59.81a96,96,0,0,0-5.49,24.7,96,96,0,0,1,5.49-24.7c11.65-31.75,37.85-50.22,56.21-59.81a98.73,98.73,0,0,1-19.16-30.78c-8.88-23.77-.26-32.92-9.6-59-2.52-7-9.06-24.64-26.08-39.8-7.28-6.48-17.71-9.41-24.52-12.6-18,1.4-78.61,9.84-121,56.52a160.36,160.36,0,0,0-28.83,45.29l-.9.61a248.16,248.16,0,0,0,22.86,100.95,248.16,248.16,0,0,1-22.86-100.95c-9.22,6.25-30.72,22.81-41.64,52.91-4.37,12-13.95,45.36,2.74,79.61,9,18.48,20.37,28.48,28.43,34.34,3.89-6.4,6.28-12.7,10-16.5,29.84-30.44,74.87-29.66,100.8-26-11-20.39-16-44.93-11.59-67.33,4.34-21.92,14.39-24.61,22-57.64,4.79-20.86,8.73-39.21,0-57.65-6.28-13.27-16.84-21.75-25.79-26.95,8.95,5.2,19.51,13.68,25.79,26.95,8.73,18.44,4.79,36.79,0,57.65-7.57,33-17.62,35.72-22,57.64-4.43,22.4.63,46.94,11.59,67.33a106.14,106.14,0,0,0,13.12,19.14C381,567,435.94,563.71,456,562.5A164.5,164.5,0,0,0,503,552.57a179.9,179.9,0,0,0,44.89-24.38A179.9,179.9,0,0,1,503,552.57a67.45,67.45,0,0,0,6.46,9.93c9.14,11.63,19.77,17.16,34.31,24.71A183.92,183.92,0,0,0,583.6,602.3a183.92,183.92,0,0,1-39.81-15.09c-14.54-7.55-25.17-13.08-34.31-24.71a67.45,67.45,0,0,1-6.46-9.93A164.5,164.5,0,0,1,456,562.5c-20,1.21-75,4.54-109.8-35.68A106.14,106.14,0,0,1,333,507.68c-25.93-3.66-71-4.44-100.8,26-3.72,3.8-6.11,10.1-10,16.5.39,9.26,4.55,37.47,25.1,59,14.44,15.12,30.34,19.73,52.15,26.07,12.45,3.63,24.63,7.15,35.78,8.57,13.25,1.7,25.06.44,34.22-7.19,9.84-8.21,16-23.31,12.35-35.69-4.9-16.51-25.83-21.93-42.55-27.45A101.11,101.11,0,0,0,294,569.36a101.11,101.11,0,0,1,45.29,4.12c16.72,5.52,37.65,10.94,42.55,27.45,3.67,12.38-2.51,27.48-12.35,35.69-9.16,7.63-21,8.89-34.22,7.19,2.45,22.6-2.34,36.92-8.33,46.33-4.94,7.78-12.87,15.65-15.09,30.2-2.06,13.49,1,31.45,9.6,34.31,6.21,2.06,12.46-4.67,35.69-27.45,25.31-24.83,38.08-37.32,43.92-41.17,22.56-14.94,31.74-10.55,52.15-26.08a115,115,0,0,0,27.45-30.2,333.92,333.92,0,0,1-32.94-23.33,333.92,333.92,0,0,0,32.94,23.33c7,4.2,58,33.77,115.29,12.36a123.88,123.88,0,0,0,60.28-47.3C649.48,591.23,639.51,587,634.38,576.23Z"/><path class="cls-2" d="M825.15,492.51c-3-27-18.29-45.72-24.87-52.73a56.47,56.47,0,0,1-21.79,26.65c-21.1,13.78-44.79,8-54.9,5.49-18.58-4.57-32.72-14.54-45.09-26.71a52.44,52.44,0,0,1-20.79,7.49c-14.4,1.88-25.51-3-34.31-6.86-21.06-9.24-34.14-24.35-41.18-34.31,7,10,20.12,25.07,41.18,34.31,8.8,3.87,19.91,8.74,34.31,6.86a52.44,52.44,0,0,0,20.79-7.49c-8.38-8.25-16-17.53-23.53-26.82A252.77,252.77,0,0,1,623.4,369,252.77,252.77,0,0,0,655,418.39c7.58,9.29,15.15,18.57,23.53,26.82,12.37,12.17,26.51,22.14,45.09,26.71,10.11,2.48,33.8,8.29,54.9-5.49a56.47,56.47,0,0,0,21.79-26.65c-4.46-15.29-21.35-66-72.57-96.87A157.81,157.81,0,0,0,670,322.21a159.25,159.25,0,0,0,64.58,88,159.25,159.25,0,0,1-64.58-88c-5.7-8.2-23.23-31.07-54.83-39.69a94.65,94.65,0,0,0-34.39-2.79,85.12,85.12,0,0,0-20.51,39.84c-.44,2.13-.78,4.23-1,6.28A86.24,86.24,0,0,0,563,363.49a86.24,86.24,0,0,1-3.79-37.64,223.3,223.3,0,0,0-88.17-17.26,223.3,223.3,0,0,1,88.17,17.26c.26-2.05.6-4.15,1-6.28a85.12,85.12,0,0,1,20.51-39.84,205.86,205.86,0,0,0-102.85-24.66c-46.94,1.19-78.5,16.59-94.52,25.83,6.81,3.19,17.24,6.12,24.52,12.6,17,15.16,23.56,32.77,26.08,39.8,9.34,26.09.72,35.24,9.6,59a98.73,98.73,0,0,0,19.16,30.78,77.14,77.14,0,0,0,8.29,7.65c22,17.34,49.74,17.72,69.83,14.74a165.38,165.38,0,0,1-8.07-58.66,165.38,165.38,0,0,0,8.07,58.66c.48,1.49,1,3,1.54,4.48a161.67,161.67,0,0,0,35.69,57.64,154,154,0,0,0,53.45,35.19,20.72,20.72,0,0,1,4.19-6.37c6.74-6.84,16.63-6.47,35.68-5.49,28.06,1.47,34.88,7.64,49.41,6.87,12.36-.65,29.46-6.26,49.41-28.82-20,22.56-37,28.17-49.41,28.82-14.53.77-21.35-5.4-49.41-6.87-19-1-28.94-1.35-35.68,5.49a20.72,20.72,0,0,0-4.19,6.37c-4.32,10.26-1.52,24.32,2.82,33.44,5.13,10.76,15.1,15,21.85,18.58,44.69,18.73,95.45,11.89,129.12-15.84C792.58,573,830.4,540.2,825.15,492.51Z"/><rect class="cls-3" x="5" y="5" width="1000" height="1000" rx="194.41" ry="194.41"/></svg>