<svg id="Layer_1" data-name="Layer 1" xmlns="http://www.w3.org/2000/svg" xmlns:xlink="http://www.w3.org/1999/xlink" viewBox="0 0 1010 1010"><defs><style>.cls-1,.cls-2{fill:none;stroke-miterlimit:10;stroke-width:5px;}.cls-1{stroke:url(#linear-gradient);}.cls-2{stroke:url(#linear-gradient-2);}</style><linearGradient id="linear-gradient" x1="340.15" y1="320.79" x2="716.99" y2="747.33" gradientUnits="userSpaceOnUse"><stop offset="0" stop-color="#56f2f2"/><stop offset="1" stop-color="#56ccf2"/></linearGradient><linearGradient id="linear-gradient-2" x1="162.28" y1="-12.23" x2="847.72" y2="1022.23" xlink:href="#linear-gradient"/></defs><title>Heart</title><path class="cls-1" d="M654.33,340.15l36-40.79c-.84-2.55-7.26-21.55-16.8-21.6-4.55,0-7.94,4.29-12,9.6-7.24,9.48-16.23,21.56-26.39,36a131.5,131.5,0,0,0-55.2-28.79V237a20.2,20.2,0,0,0-7.2-7.2c-5.9-3.38-14.74-4.18-19.2,0-3.74,3.52-3.19,9.41-2.4,16.8,1.69,15.75,3.35,29.46,4.8,40.8a109.85,109.85,0,0,0-21.59,0,108.68,108.68,0,0,0-14.4,2.4,125.75,125.75,0,0,1-14.4-31.2c-2.76-9.2-3.81-16.82-9.6-19.2-4.59-1.88-9.9.44-14.4,2.4-4.24,1.85-10.11,4.41-12,9.6s1.06,10.39,4.8,16.8c5.13,8.79,11.51,19.34,19.2,31.2a134.62,134.62,0,0,0-31.2,24,137.81,137.81,0,0,0-33.59,60c-1.36-23-2.36-40-2.4-48a29.15,29.15,0,0,0-2.4-12,24.16,24.16,0,0,0-4.8-7.19c-4.94-4.75-11.8-4.67-19.2-4.8-28.35-.54-30.41-3.72-40.8,0-4.88,1.74-10.74,3.93-14.4,9.59-4.76,7.39-2.94,16.28-2.4,19.2,2.95,16,5.17,57.63,7.2,117.59-22.08-8.06-38-14.31-48-19.2-2.52-1.23-8.24-4.12-14.4-2.4-4.13,1.16-6.58,3.87-9.6,7.2s-9.94,11-9.6,21.6c.09,2.77.21,6.37,2.4,9.6,5.13,7.55,17.46,6.93,26.4,7.2,11.18.33,26.61,2.34,45.59,9.6l-4.8,21.6c-15.89,1.64-30.36,2.3-43.19,2.4-20.09.15-27.83-1.14-33.6,4.8-7.53,7.74-7.86,23.85,0,33.59,6,7.45,15,8.91,19.2,9.6,8.61,1.4,15.46-.64,28.8-4.8a177,177,0,0,0,19.19-7.2,133.75,133.75,0,0,0,9.6,52.8,132,132,0,0,0,14.4,26.4l12,141.58a99.31,99.31,0,0,0,28.8,9.6c26.25,4.44,47.61-2.94,57.59-7.2V716.92a470.47,470.47,0,0,0,103.19,31.19c33.39,6,57.75,6.62,81.6,7.2,48.49,1.2,62.3-3.93,69.59-7.2s34.27-15.36,45.59-43.19c6.28-15.43,5.33-29.84,2.4-48-5.24-32.52-11.53-71.49-38.39-117.59a307.74,307.74,0,0,0-81.59-91.19,156,156,0,0,0-36-45.59,158.5,158.5,0,0,0-76.79-36,40.92,40.92,0,0,1,14.4-9.6c22.74-8.75,46.92,7.31,57.59,14.4a108.34,108.34,0,0,1,36,40.8c2.95.55,23.41,4.07,38.39-9.6,2.39-2.18,13.48-12.3,12-24-.92-7.28-6-9.76-16.8-26.4C658.26,347.1,655.82,342.85,654.33,340.15Z"/><rect class="cls-2" x="5" y="5" width="1000" height="1000" rx="194.41" ry="194.41"/></svg>