<svg id="Layer_1" data-name="Layer 1" xmlns="http://www.w3.org/2000/svg" xmlns:xlink="http://www.w3.org/1999/xlink" viewBox="0 0 1010 1010"><defs><style>.cls-1,.cls-2,.cls-3,.cls-4,.cls-5,.cls-6{fill:none;stroke-miterlimit:10;stroke-width:5px;}.cls-1{stroke:url(#linear-gradient);}.cls-2{stroke:url(#linear-gradient-2);}.cls-3{stroke:url(#linear-gradient-3);}.cls-4{stroke:url(#linear-gradient-4);}.cls-5{stroke:url(#linear-gradient-5);}.cls-6{stroke:url(#linear-gradient-6);}</style><linearGradient id="linear-gradient" x1="276.72" y1="287.87" x2="595.85" y2="769.49" gradientUnits="userSpaceOnUse"><stop offset="0" stop-color="#56f2f2"/><stop offset="1" stop-color="#56ccf2"/></linearGradient><linearGradient id="linear-gradient-2" x1="541.79" y1="250.15" x2="581.19" y2="309.6" xlink:href="#linear-gradient"/><linearGradient id="linear-gradient-3" x1="294.28" y1="338.3" x2="357.5" y2="433.71" xlink:href="#linear-gradient"/><linearGradient id="linear-gradient-4" x1="666.86" y1="347.67" x2="716.55" y2="422.66" xlink:href="#linear-gradient"/><linearGradient id="linear-gradient-5" x1="655.18" y1="330.05" x2="728.23" y2="440.28" xlink:href="#linear-gradient"/><linearGradient id="linear-gradient-6" x1="162.28" y1="-12.23" x2="847.72" y2="1022.23" xlink:href="#linear-gradient"/></defs><title>Teeth</title><path class="cls-1" d="M694.81,525c-5.47,84.44-26.59,143.63-43.49,180.17-14.63,31.63-26.82,47.83-43.49,49.7-24.54,2.77-46.66-29.89-55.92-43.49-37.22-54.68-20.28-96.27-52.81-114.94-16.54-9.49-40.37-9.89-55.91,0-9.54,6.08-14,14.76-18.64,24.86-28.69,62-25,87.64-49.7,111.83-6.86,6.71-20.93,20.47-37.28,18.64-21.92-2.46-36.18-31.62-49.71-68.34C256,596.84,248,522,244.37,478.36c-9.91-120.06,1.85-145.57,12.43-161.54,26.78-40.44,68.67-54.09,74.55-55.92,44.07-13.66,81.57-.19,99.41,6.22,40.12,14.4,64.28,39,74.56,49.7,53.14,55.33,60.65,124.45,62.13,149.11"/><path class="cls-2" d="M480.09,294a246.83,246.83,0,0,1,31.44-14.48A251.12,251.12,0,0,1,642,267.12"/><path class="cls-3" d="M368.63,298.18c-11.95,3.49-33,11.58-49.7,31.07-15.12,17.63-19.26,35.95-24.85,62.13a318.66,318.66,0,0,0-6.22,87"/><line class="cls-4" x1="769.37" y1="385.16" x2="614.04" y2="385.16"/><line class="cls-5" x1="691.71" y1="462.83" x2="691.71" y2="307.5"/><rect class="cls-6" x="5" y="5" width="1000" height="1000" rx="194.41" ry="194.41"/></svg>